<svg xmlns="http://www.w3.org/2000/svg" viewBox="0 0 270 200" width="270" height="200"
    preserveAspectRatio="xMidYMid meet" style="width: 100%; height: 100%; transform: translate3d(0px, 0px, 0px);">
    <defs>
        <clipPath id="__lottie_element_28">
            <rect width="270" height="200" x="0" y="0"></rect>
        </clipPath>
    </defs>
    <g clip-path="url(#__lottie_element_28)">
        <g transform="matrix(1,0,0,1,91.78199768066406,36.32499694824219)" opacity="1" style="display: block;">
            <g opacity="1" transform="matrix(1,0,0,1,41.999000549316406,129.50100708007812)">
                <path fill="rgb(255,255,255)" fill-opacity="1"
                    d=" M0.9430000185966492,-1.555999994277954 C7.296000003814697,-1.555999994277954 12.46399974822998,-6.723999977111816 12.46399974822998,-13.07699966430664 C12.46399974822998,-13.07699966430664 12.46399974822998,-27.167999267578125 12.46399974822998,-27.167999267578125 C12.46399974822998,-33.52000045776367 7.296000003814697,-38.68899917602539 0.9430000185966492,-38.68899917602539 C-5.409999847412109,-38.68899917602539 -10.57800006866455,-33.52000045776367 -10.57800006866455,-27.167999267578125 C-10.57800006866455,-27.167999267578125 -10.57800006866455,-13.07699966430664 -10.57800006866455,-13.07699966430664 C-10.57800006866455,-6.723999977111816 -5.409999847412109,-1.555999994277954 0.9430000185966492,-1.555999994277954z M0.9430000185966492,-33.68899917602539 C4.538000106811523,-33.68899917602539 7.464000225067139,-30.76300048828125 7.464000225067139,-27.167999267578125 C7.464000225067139,-27.167999267578125 7.464000225067139,-13.07699966430664 7.464000225067139,-13.07699966430664 C7.464000225067139,-9.480999946594238 4.538000106811523,-6.556000232696533 0.9430000185966492,-6.556000232696533 C-2.6530001163482666,-6.556000232696533 -5.578000068664551,-9.480999946594238 -5.578000068664551,-13.07699966430664 C-5.578000068664551,-13.07699966430664 -5.578000068664551,-13.6899995803833 -5.578000068664551,-13.6899995803833 C-5.535999774932861,-13.685999870300293 -5.494999885559082,-13.677000045776367 -5.452000141143799,-13.677000045776367 C-5.452000141143799,-13.677000045776367 -1.4170000553131104,-13.677000045776367 -1.4170000553131104,-13.677000045776367 C-0.5889999866485596,-13.677000045776367 0.08299999684095383,-14.348999977111816 0.08299999684095383,-15.177000045776367 C0.08299999684095383,-16.0049991607666 -0.5889999866485596,-16.677000045776367 -1.4170000553131104,-16.677000045776367 C-1.4170000553131104,-16.677000045776367 -5.452000141143799,-16.677000045776367 -5.452000141143799,-16.677000045776367 C-5.494999885559082,-16.677000045776367 -5.535999774932861,-16.667999267578125 -5.578000068664551,-16.665000915527344 C-5.578000068664551,-16.665000915527344 -5.578000068664551,-22.44499969482422 -5.578000068664551,-22.44499969482422 C-5.535999774932861,-22.44099998474121 -5.494999885559082,-22.43199920654297 -5.452000141143799,-22.43199920654297 C-5.452000141143799,-22.43199920654297 -1.4170000553131104,-22.43199920654297 -1.4170000553131104,-22.43199920654297 C-0.5889999866485596,-22.43199920654297 0.08299999684095383,-23.104000091552734 0.08299999684095383,-23.93199920654297 C0.08299999684095383,-24.760000228881836 -0.5889999866485596,-25.43199920654297 -1.4170000553131104,-25.43199920654297 C-1.4170000553131104,-25.43199920654297 -5.452000141143799,-25.43199920654297 -5.452000141143799,-25.43199920654297 C-5.494999885559082,-25.43199920654297 -5.535999774932861,-25.42300033569336 -5.578000068664551,-25.41900062561035 C-5.578000068664551,-25.41900062561035 -5.578000068664551,-27.167999267578125 -5.578000068664551,-27.167999267578125 C-5.578000068664551,-30.76300048828125 -2.6530001163482666,-33.68899917602539 0.9430000185966492,-33.68899917602539z M27.167999267578125,-11.102999687194824 C25.31800079345703,-12.217000007629395 23.27199935913086,-13.152999877929688 21.089000701904297,-13.913999557495117 C21.089000701904297,-13.913999557495117 21.089000701904297,-18.097999572753906 21.089000701904297,-18.097999572753906 C21.089000701904297,-19.479000091552734 19.969999313354492,-20.597999572753906 18.589000701904297,-20.597999572753906 C17.20800018310547,-20.597999572753906 16.089000701904297,-19.479000091552734 16.089000701904297,-18.097999572753906 C16.089000701904297,-18.097999572753906 16.089000701904297,-11.479000091552734 16.089000701904297,-11.479000091552734 C16.089000701904297,-3.0390000343322754 9.222999572753906,3.828000068664551 0.7820000052452087,3.828000068664551 C-7.6579999923706055,3.828000068664551 -14.524999618530273,-3.0390000343322754 -14.524999618530273,-11.479000091552734 C-14.524999618530273,-11.479000091552734 -14.524999618530273,-18.097999572753906 -14.524999618530273,-18.097999572753906 C-14.524999618530273,-19.479000091552734 -15.645000457763672,-20.597999572753906 -17.024999618530273,-20.597999572753906 C-18.4060001373291,-20.597999572753906 -19.524999618530273,-19.479000091552734 -19.524999618530273,-18.097999572753906 C-19.524999618530273,-18.097999572753906 -19.524999618530273,-14.423999786376953 -19.524999618530273,-14.423999786376953 C-22.415000915527344,-13.423999786376953 -25.145999908447266,-12.098999977111816 -27.64299964904785,-10.432000160217285 C-38.178001403808594,-3.3970000743865967 -41.51900100708008,7.052999973297119 -41.65599822998047,7.494999885559082 C-41.65599822998047,7.494999885559082 -36.880001068115234,8.97700023651123 -36.880001068115234,8.97700023651123 C-36.85200119018555,8.88599967956543 -33.944000244140625,-0.21199999749660492 -24.865999221801758,-6.27400016784668 C-23.156999588012695,-7.414999961853027 -21.31599998474121,-8.371000289916992 -19.381000518798828,-9.152000427246094 C-18.31599998474121,0.12800000607967377 -10.97599983215332,7.513000011444092 -1.718999981880188,8.657999992370605 C-1.718999981880188,8.657999992370605 -1.718999981880188,15.597999572753906 -1.718999981880188,15.597999572753906 C-1.718999981880188,15.597999572753906 -4.683000087738037,15.597999572753906 -4.683000087738037,15.597999572753906 C-6.063000202178955,15.597999572753906 -7.182000160217285,16.716999053955078 -7.182000160217285,18.097999572753906 C-7.182000160217285,19.479000091552734 -6.063000202178955,20.597999572753906 -4.683000087738037,20.597999572753906 C-4.683000087738037,20.597999572753906 6.320000171661377,20.597999572753906 6.320000171661377,20.597999572753906 C7.701000213623047,20.597999572753906 8.819999694824219,19.479000091552734 8.819999694824219,18.097999572753906 C8.819999694824219,16.716999053955078 7.701000213623047,15.597999572753906 6.320000171661377,15.597999572753906 C6.320000171661377,15.597999572753906 3.2820000648498535,15.597999572753906 3.2820000648498535,15.597999572753906 C3.2820000648498535,15.597999572753906 3.2820000648498535,8.657999992370605 3.2820000648498535,8.657999992370605 C12.373000144958496,7.533999919891357 19.60300064086914,0.3880000114440918 20.868000030517578,-8.659000396728516 C22.184999465942383,-8.125 23.42099952697754,-7.5229997634887695 24.58799934387207,-6.820000171661377 C29.91699981689453,-3.611999988555908 33.86899948120117,1.4880000352859497 37.027000427246094,9.227999687194824 C37.027000427246094,9.227999687194824 41.65599822998047,7.339000225067139 41.65599822998047,7.339000225067139 C38.06999969482422,-1.4500000476837158 33.46699905395508,-7.309999942779541 27.167999267578125,-11.102999687194824z">
                </path>
            </g>
            <g opacity="1" transform="matrix(1,0,0,1,78.98799896240234,27.124000549316406)">
                <path stroke-linecap="round" stroke-linejoin="miter" fill-opacity="0" stroke-miterlimit="10"
                    stroke="rgb(255,255,255)" stroke-opacity="1" stroke-width="5" d="M0 0"></path>
            </g>
        </g>
        <g transform="matrix(1,0,0,1,91.78199768066406,36.32499694824219)" opacity="1" style="display: block;">
            <g opacity="1" transform="matrix(1,0,0,1,41.999000549316406,129.50100708007812)">
                <path fill="rgb(255,255,255)" fill-opacity="1"
                    d=" M0.9430000185966492,-1.555999994277954 C7.296000003814697,-1.555999994277954 12.46399974822998,-6.723999977111816 12.46399974822998,-13.07699966430664 C12.46399974822998,-13.07699966430664 12.46399974822998,-27.167999267578125 12.46399974822998,-27.167999267578125 C12.46399974822998,-33.52000045776367 7.296000003814697,-38.68899917602539 0.9430000185966492,-38.68899917602539 C-5.409999847412109,-38.68899917602539 -10.57800006866455,-33.52000045776367 -10.57800006866455,-27.167999267578125 C-10.57800006866455,-27.167999267578125 -10.57800006866455,-13.07699966430664 -10.57800006866455,-13.07699966430664 C-10.57800006866455,-6.723999977111816 -5.409999847412109,-1.555999994277954 0.9430000185966492,-1.555999994277954z M0.9430000185966492,-33.68899917602539 C4.538000106811523,-33.68899917602539 7.464000225067139,-30.76300048828125 7.464000225067139,-27.167999267578125 C7.464000225067139,-27.167999267578125 7.464000225067139,-13.07699966430664 7.464000225067139,-13.07699966430664 C7.464000225067139,-9.480999946594238 4.538000106811523,-6.556000232696533 0.9430000185966492,-6.556000232696533 C-2.6530001163482666,-6.556000232696533 -5.578000068664551,-9.480999946594238 -5.578000068664551,-13.07699966430664 C-5.578000068664551,-13.07699966430664 -5.578000068664551,-13.6899995803833 -5.578000068664551,-13.6899995803833 C-5.535999774932861,-13.685999870300293 -5.494999885559082,-13.677000045776367 -5.452000141143799,-13.677000045776367 C-5.452000141143799,-13.677000045776367 -1.4170000553131104,-13.677000045776367 -1.4170000553131104,-13.677000045776367 C-0.5889999866485596,-13.677000045776367 0.08299999684095383,-14.348999977111816 0.08299999684095383,-15.177000045776367 C0.08299999684095383,-16.0049991607666 -0.5889999866485596,-16.677000045776367 -1.4170000553131104,-16.677000045776367 C-1.4170000553131104,-16.677000045776367 -5.452000141143799,-16.677000045776367 -5.452000141143799,-16.677000045776367 C-5.494999885559082,-16.677000045776367 -5.535999774932861,-16.667999267578125 -5.578000068664551,-16.665000915527344 C-5.578000068664551,-16.665000915527344 -5.578000068664551,-22.44499969482422 -5.578000068664551,-22.44499969482422 C-5.535999774932861,-22.44099998474121 -5.494999885559082,-22.43199920654297 -5.452000141143799,-22.43199920654297 C-5.452000141143799,-22.43199920654297 -1.4170000553131104,-22.43199920654297 -1.4170000553131104,-22.43199920654297 C-0.5889999866485596,-22.43199920654297 0.08299999684095383,-23.104000091552734 0.08299999684095383,-23.93199920654297 C0.08299999684095383,-24.760000228881836 -0.5889999866485596,-25.43199920654297 -1.4170000553131104,-25.43199920654297 C-1.4170000553131104,-25.43199920654297 -5.452000141143799,-25.43199920654297 -5.452000141143799,-25.43199920654297 C-5.494999885559082,-25.43199920654297 -5.535999774932861,-25.42300033569336 -5.578000068664551,-25.41900062561035 C-5.578000068664551,-25.41900062561035 -5.578000068664551,-27.167999267578125 -5.578000068664551,-27.167999267578125 C-5.578000068664551,-30.76300048828125 -2.6530001163482666,-33.68899917602539 0.9430000185966492,-33.68899917602539z M27.167999267578125,-11.102999687194824 C25.31800079345703,-12.217000007629395 23.27199935913086,-13.152999877929688 21.089000701904297,-13.913999557495117 C21.089000701904297,-13.913999557495117 21.089000701904297,-18.097999572753906 21.089000701904297,-18.097999572753906 C21.089000701904297,-19.479000091552734 19.969999313354492,-20.597999572753906 18.589000701904297,-20.597999572753906 C17.20800018310547,-20.597999572753906 16.089000701904297,-19.479000091552734 16.089000701904297,-18.097999572753906 C16.089000701904297,-18.097999572753906 16.089000701904297,-11.479000091552734 16.089000701904297,-11.479000091552734 C16.089000701904297,-3.0390000343322754 9.222999572753906,3.828000068664551 0.7820000052452087,3.828000068664551 C-7.6579999923706055,3.828000068664551 -14.524999618530273,-3.0390000343322754 -14.524999618530273,-11.479000091552734 C-14.524999618530273,-11.479000091552734 -14.524999618530273,-18.097999572753906 -14.524999618530273,-18.097999572753906 C-14.524999618530273,-19.479000091552734 -15.645000457763672,-20.597999572753906 -17.024999618530273,-20.597999572753906 C-18.4060001373291,-20.597999572753906 -19.524999618530273,-19.479000091552734 -19.524999618530273,-18.097999572753906 C-19.524999618530273,-18.097999572753906 -19.524999618530273,-14.423999786376953 -19.524999618530273,-14.423999786376953 C-22.415000915527344,-13.423999786376953 -25.145999908447266,-12.098999977111816 -27.64299964904785,-10.432000160217285 C-38.178001403808594,-3.3970000743865967 -41.51900100708008,7.052999973297119 -41.65599822998047,7.494999885559082 C-41.65599822998047,7.494999885559082 -36.880001068115234,8.97700023651123 -36.880001068115234,8.97700023651123 C-36.85200119018555,8.88599967956543 -33.944000244140625,-0.21199999749660492 -24.865999221801758,-6.27400016784668 C-23.156999588012695,-7.414999961853027 -21.31599998474121,-8.371000289916992 -19.381000518798828,-9.152000427246094 C-18.31599998474121,0.12800000607967377 -10.97599983215332,7.513000011444092 -1.718999981880188,8.657999992370605 C-1.718999981880188,8.657999992370605 -1.718999981880188,15.597999572753906 -1.718999981880188,15.597999572753906 C-1.718999981880188,15.597999572753906 -4.683000087738037,15.597999572753906 -4.683000087738037,15.597999572753906 C-6.063000202178955,15.597999572753906 -7.182000160217285,16.716999053955078 -7.182000160217285,18.097999572753906 C-7.182000160217285,19.479000091552734 -6.063000202178955,20.597999572753906 -4.683000087738037,20.597999572753906 C-4.683000087738037,20.597999572753906 6.320000171661377,20.597999572753906 6.320000171661377,20.597999572753906 C7.701000213623047,20.597999572753906 8.819999694824219,19.479000091552734 8.819999694824219,18.097999572753906 C8.819999694824219,16.716999053955078 7.701000213623047,15.597999572753906 6.320000171661377,15.597999572753906 C6.320000171661377,15.597999572753906 3.2820000648498535,15.597999572753906 3.2820000648498535,15.597999572753906 C3.2820000648498535,15.597999572753906 3.2820000648498535,8.657999992370605 3.2820000648498535,8.657999992370605 C12.373000144958496,7.533999919891357 19.60300064086914,0.3880000114440918 20.868000030517578,-8.659000396728516 C22.184999465942383,-8.125 23.42099952697754,-7.5229997634887695 24.58799934387207,-6.820000171661377 C29.91699981689453,-3.611999988555908 33.86899948120117,1.4880000352859497 37.027000427246094,9.227999687194824 C37.027000427246094,9.227999687194824 41.65599822998047,7.339000225067139 41.65599822998047,7.339000225067139 C38.06999969482422,-1.4500000476837158 33.46699905395508,-7.309999942779541 27.167999267578125,-11.102999687194824z">
                </path>
            </g>
            <g opacity="1" transform="matrix(1,0,0,1,78.98799896240234,27.124000549316406)">
                <path stroke-linecap="round" stroke-linejoin="miter" fill-opacity="0" stroke-miterlimit="10"
                    stroke="rgb(255,255,255)" stroke-opacity="1" stroke-width="5" d="M0 0"></path>
            </g>
        </g>
        <g transform="matrix(0.9979023933410645,0.06473612040281296,-0.06473612040281296,0.9979023933410645,177.02415466308594,35.83598327636719)"
            opacity="1" style="display: block;">
            <g opacity="1" transform="matrix(1,0,0,1,18.12299919128418,79.62899780273438)">
                <path fill="rgb(255,255,255)" fill-opacity="1"
                    d=" M9.538999557495117,-18.5939998626709 C9.538999557495117,-18.5939998626709 -15.1899995803833,0.8019999861717224 -15.1899995803833,0.8019999861717224 C-15.496999740600586,1.0420000553131104 -15.538000106811523,1.4910000562667847 -15.279999732971191,1.781999945640564 C-15.279999732971191,1.781999945640564 -8.569000244140625,9.378000259399414 -8.569000244140625,9.378000259399414 C-8.569000244140625,9.378000259399414 -17.285999298095703,17.135000228881836 -17.285999298095703,17.135000228881836 C-17.87299919128418,17.658000946044922 -17.249000549316406,18.5939998626709 -16.54199981689453,18.25200080871582 C-16.54199981689453,18.25200080871582 -2.559999942779541,11.489999771118164 -2.559999942779541,11.489999771118164 C-2.186000108718872,11.309000015258789 -2.062000036239624,10.838000297546387 -2.2980000972747803,10.496000289916992 C-2.2980000972747803,10.496000289916992 -7.545000076293945,2.9070000648498535 -7.545000076293945,2.9070000648498535 C-7.545000076293945,2.9070000648498535 17.87299919128418,-8.024999618530273 17.87299919128418,-8.024999618530273 C17.87299919128418,-8.024999618530273 9.538999557495117,-18.5939998626709 9.538999557495117,-18.5939998626709z">
                </path>
            </g>
            <g opacity="1" transform="matrix(1,0,0,1,50.60300064086914,42.67499923706055)">
                <path fill="rgb(255,255,255)" fill-opacity="1"
                    d=" M0,-42.42399978637695 C-23.43000030517578,-42.42399978637695 -42.42499923706055,-23.43000030517578 -42.42499923706055,0.0010000000474974513 C-42.42499923706055,23.430999755859375 -23.43000030517578,42.42399978637695 0,42.42399978637695 C23.430999755859375,42.42399978637695 42.42499923706055,23.430999755859375 42.42499923706055,0.0010000000474974513 C42.42499923706055,-23.43000030517578 23.430999755859375,-42.42399978637695 0,-42.42399978637695z M0.8029999732971191,29.14299964904785 C-14.895000457763672,29.14299964904785 -27.621000289916992,16.417999267578125 -27.621000289916992,0.7210000157356262 C-27.621000289916992,-14.97700023651123 -14.895000457763672,-27.702999114990234 0.8029999732971191,-27.702999114990234 C16.5,-27.702999114990234 29.226999282836914,-14.97700023651123 29.226999282836914,0.7210000157356262 C29.226999282836914,16.417999267578125 16.5,29.14299964904785 0.8029999732971191,29.14299964904785z">
                </path>
            </g>
            <g opacity="1"
                transform="matrix(0.9971914887428284,0.07489410042762756,-0.07489410042762756,0.9971914887428284,3.237316131591797,-3.9211463928222656)">
                <g opacity="1" transform="matrix(1,0,0,1,67.85900115966797,44.959999084472656)">
                    <path fill="rgb(255,255,255)" fill-opacity="1"
                        d=" M-3.806999921798706,0 C-3.806999921798706,2.1029999256134033 -2.1019999980926514,3.806999921798706 0.0010000000474974513,3.806999921798706 C2.1029999256134033,3.806999921798706 3.806999921798706,2.1029999256134033 3.806999921798706,0 C3.806999921798706,-2.1029999256134033 2.1029999256134033,-3.806999921798706 0.0010000000474974513,-3.806999921798706 C-2.1019999980926514,-3.806999921798706 -3.806999921798706,-2.1029999256134033 -3.806999921798706,0z">
                    </path>
                </g>
                <g opacity="1" transform="matrix(1,0,0,1,48.439998626708984,28.655000686645508)">
                    <path stroke-linecap="round" stroke-linejoin="round" fill-opacity="0" stroke="rgb(255,255,255)"
                        stroke-opacity="1" stroke-width="3"
                        d=" M-5.49399995803833,-1.1380000114440918 C-5.49399995803833,-1.1380000114440918 5.49399995803833,1.1380000114440918 5.49399995803833,1.1380000114440918 M1.8910000324249268,-5.2820000648498535 C1.8910000324249268,-5.2820000648498535 -1.8910000324249268,5.2820000648498535 -1.8910000324249268,5.2820000648498535">
                    </path>
                </g>
                <g opacity="1" transform="matrix(1,0,0,1,51.108001708984375,45.63600158691406)">
                    <path stroke-linecap="round" stroke-linejoin="miter" fill-opacity="0" stroke-miterlimit="10"
                        stroke="rgb(255,255,255)" stroke-opacity="1" stroke-width="3"
                        d=" M-10.152000427246094,-8.121000289916992 C-10.152000427246094,-8.121000289916992 10.152000427246094,8.121000289916992 10.152000427246094,8.121000289916992">
                    </path>
                </g>
                <g opacity="1"
                    transform="matrix(0.9144523739814758,0,0,0.9144523739814758,46.20705032348633,53.764305114746094)">
                    <path stroke-linecap="round" stroke-linejoin="round" fill-opacity="0" stroke="rgb(255,255,255)"
                        stroke-opacity="1" stroke-width="3"
                        d=" M5.2779998779296875,-7.9029998779296875 C5.2779998779296875,-7.9029998779296875 1.7960000038146973,-2.875999927520752 1.7680000066757202,-2.7269999980926514 M10.206000328063965,-3.740000009536743 C10.206000328063965,-3.740000009536743 3.6500000953674316,11.395999908447266 -4.2729997634887695,4.561999797821045 C-10.206000328063965,-0.5550000071525574 -5.206999778747559,-6.743000030517578 1.7289999723434448,-11.395999908447266">
                    </path>
                </g>
            </g>
        </g>
        <g transform="matrix(0.997724711894989,-0.06741971522569656,0.06741971522569656,0.997724711894989,-0.835113525390625,44.389732360839844)"
            opacity="1" style="display: block;">
            <g opacity="1" transform="matrix(1,0,0,1,75.15599822998047,79.62899780273438)">
                <path fill="rgb(255,255,255)" fill-opacity="1"
                    d=" M-9.539999961853027,-18.5939998626709 C-9.539999961853027,-18.5939998626709 15.190999984741211,0.8019999861717224 15.190999984741211,0.8019999861717224 C15.496999740600586,1.0420000553131104 15.538000106811523,1.4910000562667847 15.279999732971191,1.781999945640564 C15.279999732971191,1.781999945640564 8.567999839782715,9.378000259399414 8.567999839782715,9.378000259399414 C8.567999839782715,9.378000259399414 17.285999298095703,17.135000228881836 17.285999298095703,17.135000228881836 C17.87299919128418,17.658000946044922 17.249000549316406,18.5939998626709 16.54199981689453,18.25200080871582 C16.54199981689453,18.25200080871582 2.559999942779541,11.489999771118164 2.559999942779541,11.489999771118164 C2.186000108718872,11.309000015258789 2.062000036239624,10.838000297546387 2.2980000972747803,10.496000289916992 C2.2980000972747803,10.496000289916992 7.545000076293945,2.9070000648498535 7.545000076293945,2.9070000648498535 C7.545000076293945,2.9070000648498535 -17.874000549316406,-8.024999618530273 -17.874000549316406,-8.024999618530273 C-17.874000549316406,-8.024999618530273 -9.539999961853027,-18.5939998626709 -9.539999961853027,-18.5939998626709z">
                </path>
            </g>
            <g opacity="1" transform="matrix(1,0,0,1,42.67499923706055,42.67499923706055)">
                <path fill="rgb(255,255,255)" fill-opacity="1"
                    d=" M-0.0010000000474974513,-42.42399978637695 C-23.430999755859375,-42.42399978637695 -42.42599868774414,-23.43000030517578 -42.42599868774414,0.0010000000474974513 C-42.42599868774414,23.430999755859375 -23.430999755859375,42.42399978637695 -0.0010000000474974513,42.42399978637695 C23.43000030517578,42.42399978637695 42.42599868774414,23.430999755859375 42.42599868774414,0.0010000000474974513 C42.42599868774414,-23.43000030517578 23.43000030517578,-42.42399978637695 -0.0010000000474974513,-42.42399978637695z M-0.8029999732971191,29.14299964904785 C-16.500999450683594,29.14299964904785 -29.226999282836914,16.417999267578125 -29.226999282836914,0.7210000157356262 C-29.226999282836914,-14.97700023651123 -16.500999450683594,-27.702999114990234 -0.8029999732971191,-27.702999114990234 C14.895000457763672,-27.702999114990234 27.6200008392334,-14.97700023651123 27.6200008392334,0.7210000157356262 C27.6200008392334,16.417999267578125 14.895000457763672,29.14299964904785 -0.8029999732971191,29.14299964904785z">
                </path>
            </g>
            <g opacity="1"
                transform="matrix(0.9848077297210693,-0.1736481785774231,0.1736481785774231,0.9848077297210693,-6.430946350097656,7.141956329345703)">
                <g opacity="1" transform="matrix(1,0,0,1,43.95199966430664,47.65999984741211)">
                    <path stroke-linecap="round" stroke-linejoin="miter" fill-opacity="0" stroke-miterlimit="10"
                        stroke="rgb(255,255,255)" stroke-opacity="1" stroke-width="3"
                        d=" M3.8989999294281006,-7.395999908447266 C3.8989999294281006,-7.395999908447266 5.815999984741211,-3.999000072479248 5.815999984741211,-3.999000072479248 C7.790999889373779,-0.7710000276565552 6.77400016784668,3.447000026702881 3.5460000038146973,5.421000003814697 C0.31700000166893005,7.395999908447266 -3.9000000953674316,6.380000114440918 -5.875,3.1510000228881836 C-5.875,3.1510000228881836 -7.790999889373779,-0.24500000476837158 -7.790999889373779,-0.24500000476837158">
                    </path>
                </g>
                <g opacity="1"
                    transform="matrix(0.8660253882408142,-0.5,0.5,0.8660253882408142,49.78200149536133,30.367000579833984)">
                    <path fill="rgb(255,255,255)" fill-opacity="1"
                        d=" M3.806999921798706,0 C3.806999921798706,2.1019999980926514 2.1019999980926514,3.806999921798706 0,3.806999921798706 C-2.1019999980926514,3.806999921798706 -3.806999921798706,2.1019999980926514 -3.806999921798706,0 C-3.806999921798706,-2.1029999256134033 -2.1019999980926514,-3.806999921798706 0,-3.806999921798706 C2.1019999980926514,-3.806999921798706 3.806999921798706,-2.1029999256134033 3.806999921798706,0z">
                    </path>
                </g>
                <g opacity="1"
                    transform="matrix(0.8660253882408142,-0.5,0.5,0.8660253882408142,25.41900062561035,44.959999084472656)">
                    <path fill="rgb(255,255,255)" fill-opacity="1"
                        d=" M3.806999921798706,0 C3.806999921798706,2.1029999256134033 2.1019999980926514,3.806999921798706 -0.0010000000474974513,3.806999921798706 C-2.1029999256134033,3.806999921798706 -3.806999921798706,2.1029999256134033 -3.806999921798706,0 C-3.806999921798706,-2.1029999256134033 -2.1029999256134033,-3.806999921798706 -0.0010000000474974513,-3.806999921798706 C2.1019999980926514,-3.806999921798706 3.806999921798706,-2.1029999256134033 3.806999921798706,0z">
                    </path>
                </g>
            </g>
        </g>
        <g transform="matrix(1,0,0,1,89.47499084472656,61.60099792480469)" opacity="1" style="display: block;">
            <g opacity="1" transform="matrix(1,0,0,1,44.15800094604492,43.17900085449219)">
                <path stroke-linecap="butt" stroke-linejoin="miter" fill-opacity="0" stroke-miterlimit="10"
                    stroke="rgb(255,255,255)" stroke-opacity="1" stroke-width="5"
                    d=" M-9.571000099182129,30.67799949645996 C-22.503999710083008,26.531999588012695 -31.658000946044922,14.192999839782715 -31.163999557495117,-0.050999999046325684 C-30.56800079345703,-17.232999801635742 -16.15399932861328,-30.679000854492188 1.0290000438690186,-30.08300018310547 C18.211000442504883,-29.48699951171875 31.658000946044922,-15.074000358581543 31.062000274658203,2.1089999675750732 C30.614999771118164,14.996000289916992 22.395000457763672,25.783000946044922 11.0649995803833,30.118000030517578">
                </path>
            </g>
        </g>
        <g transform="matrix(1,0,0,1,89.47499084472656,61.60099792480469)" opacity="1" style="display: block;">
            <g opacity="1" transform="matrix(1,0,0,1,0,0.15204238891601562)">
                <g opacity="1"
                    transform="matrix(0.9986686706542969,0,0,0.9986686706542969,48.30983352661133,45.7576789855957)">
                    <path fill="rgb(255,255,255)" fill-opacity="1"
                        d=" M-16.65399932861328,-1.6970000267028809 C-16.65399932861328,-1.6970000267028809 12.668999671936035,-11.387999534606934 12.668999671936035,-11.387999534606934 C12.668999671936035,-11.387999534606934 16.652999877929688,4.718999862670898 3.9619998931884766,8.109000205993652 C-8.317000389099121,11.387999534606934 -15.888999938964844,4.789999961853027 -16.65399932861328,-1.6970000267028809z">
                    </path>
                </g>
                <g opacity="1"
                    transform="matrix(0.995903730392456,0,0,0.995903730392456,36.355831146240234,31.421680450439453)">
                    <path fill="rgb(255,255,255)" fill-opacity="1"
                        d=" M5.90500020980835,0.5550000071525574 C5.5980000495910645,3.815999984741211 2.7060000896453857,6.211999893188477 -0.5550000071525574,5.906000137329102 C-3.816999912261963,5.598999977111816 -6.211999893188477,2.7060000896453857 -5.906000137329102,-0.5550000071525574 C-5.598999977111816,-3.815999984741211 -2.7060000896453857,-6.211999893188477 0.5550000071525574,-5.90500020980835 C3.815999984741211,-5.598999977111816 6.211999893188477,-2.7060000896453857 5.90500020980835,0.5550000071525574z">
                    </path>
                </g>
                <g opacity="1"
                    transform="matrix(1.004096269607544,0,0,1.004096269607544,58.122833251953125,27.35968017578125)">
                    <path fill="rgb(255,255,255)" fill-opacity="1"
                        d=" M3.4070000648498535,0.3199999928474426 C3.2300000190734863,2.2019999027252197 1.5609999895095825,3.5840001106262207 -0.3199999928474426,3.4059998989105225 C-2.2009999752044678,3.2300000190734863 -3.5829999446868896,1.5609999895095825 -3.4059998989105225,-0.32100000977516174 C-3.2300000190734863,-2.2019999027252197 -1.562000036239624,-3.5840001106262207 0.3199999928474426,-3.4070000648498535 C2.2009999752044678,-3.2300000190734863 3.5840001106262207,-1.5609999895095825 3.4070000648498535,0.3199999928474426z">
                    </path>
                </g>
            </g>
        </g>
    </g>
</svg>